<?xml version="1.0" encoding="utf-8"?>
<!-- Generator: Adobe Illustrator 25.2.0, SVG Export Plug-In . SVG Version: 6.00 Build 0)  -->
<svg version="1.1" id="Layer_1" xmlns="http://www.w3.org/2000/svg" xmlns:xlink="http://www.w3.org/1999/xlink" x="0px" y="0px"
	 viewBox="0 0 147.8 12.6" style="enable-background:new 0 0 147.8 12.6;" xml:space="preserve">
<g>
	<path d="M5,0.1c0.9,0,1.7,0.2,2.3,0.5C8,0.9,8.6,1.4,9,2c0.4,0.6,0.8,1.3,1,2c0.2,0.8,0.3,1.5,0.3,2.4c0,1.2-0.2,2.2-0.6,3.2
		c-0.4,1-1,1.7-1.7,2.3c-0.8,0.6-1.8,0.9-3,0.9H0.5c-0.2,0-0.3-0.1-0.4-0.2c-0.1-0.1-0.2-0.2-0.2-0.4V0.6c0-0.1,0.1-0.3,0.2-0.4
		c0.1-0.1,0.2-0.2,0.4-0.2H5z M4.9,11.6c1,0,1.8-0.2,2.5-0.7C7.9,10.4,8.4,9.8,8.7,9C9,8.2,9.1,7.3,9.1,6.4c0-0.7-0.1-1.3-0.2-2
		C8.7,3.7,8.5,3.2,8.1,2.7C7.8,2.2,7.4,1.8,6.8,1.5c-0.5-0.3-1.2-0.4-2-0.4H0.9L1,1v10.8l-0.1-0.2H4.9z"/>
	<path d="M17.1,1.5l-4.4,10.9c0,0.1-0.1,0.2-0.2,0.3s-0.2,0.1-0.3,0.1c-0.2,0-0.3,0-0.4-0.1c-0.1-0.1-0.1-0.2-0.1-0.3
		c0-0.1,0-0.1,0-0.2l4.8-11.6c0-0.1,0.1-0.2,0.2-0.3C16.7,0,16.9,0,17,0c0.1,0,0.2,0,0.3,0.1c0.1,0.1,0.2,0.2,0.2,0.3l4.7,11.6
		c0,0.1,0,0.1,0,0.2c0,0.2-0.1,0.3-0.2,0.4c-0.1,0.1-0.2,0.1-0.4,0.1c-0.1,0-0.2,0-0.3-0.1s-0.2-0.2-0.2-0.3L16.7,1.4L17.1,1.5z
		 M13.7,9L14.2,8h5.6L20,9H13.7z"/>
	<path d="M33.7,0.1c0.2,0,0.3,0,0.4,0.1c0.1,0.1,0.1,0.2,0.1,0.4v11.5c0,0.2-0.1,0.3-0.2,0.4c-0.1,0.1-0.2,0.2-0.4,0.2
		c-0.1,0-0.2,0-0.2,0s-0.1-0.1-0.2-0.1l-8-10.8l0.3-0.2v10.7c0,0.1,0,0.2-0.1,0.3c-0.1,0.1-0.2,0.1-0.4,0.1c-0.2,0-0.3,0-0.4-0.1
		c-0.1-0.1-0.1-0.2-0.1-0.3V0.6c0-0.2,0.1-0.3,0.2-0.4c0.1-0.1,0.2-0.1,0.4-0.1c0.1,0,0.1,0,0.2,0c0.1,0,0.1,0.1,0.2,0.2l7.9,10.7
		l-0.2,0.3V0.6c0-0.1,0-0.3,0.1-0.4C33.4,0.1,33.6,0.1,33.7,0.1z"/>
	<path d="M38.7,12.1c0,0.2-0.1,0.3-0.2,0.4c-0.1,0.1-0.2,0.2-0.4,0.2c-0.2,0-0.3-0.1-0.4-0.2s-0.1-0.2-0.1-0.4V0.6
		c0-0.2,0.1-0.3,0.2-0.4s0.2-0.2,0.4-0.2c0.1,0,0.3,0.1,0.4,0.2c0.1,0.1,0.2,0.2,0.2,0.4V12.1z"/>
	<path d="M42.6,0.1h6.6c0.2,0,0.3,0.1,0.4,0.2c0.1,0.1,0.2,0.2,0.2,0.4c0,0.2-0.1,0.3-0.2,0.4c-0.1,0.1-0.2,0.1-0.4,0.1H43l0.2-0.3
		v5.1L43,5.6h5.4c0.2,0,0.3,0.1,0.4,0.2C48.9,5.9,49,6,49,6.2c0,0.2-0.1,0.3-0.2,0.4c-0.1,0.1-0.2,0.1-0.4,0.1h-5.3l0.2-0.2v5.2
		l-0.1-0.1h6.1c0.2,0,0.3,0.1,0.4,0.2c0.1,0.1,0.2,0.2,0.2,0.4c0,0.2-0.1,0.3-0.2,0.4c-0.1,0.1-0.2,0.1-0.4,0.1h-6.6
		c-0.2,0-0.3-0.1-0.4-0.2c-0.1-0.1-0.2-0.2-0.2-0.4V0.6c0-0.1,0.1-0.3,0.2-0.4C42.3,0.1,42.5,0.1,42.6,0.1z"/>
	<path d="M59.3,11.6c0.2,0,0.3,0.1,0.4,0.2c0.1,0.1,0.2,0.2,0.2,0.4c0,0.2-0.1,0.3-0.2,0.4s-0.2,0.2-0.4,0.2h-6.4
		c-0.2,0-0.3-0.1-0.4-0.2c-0.1-0.1-0.2-0.2-0.2-0.4V0.6c0-0.1,0.1-0.3,0.2-0.4s0.2-0.2,0.4-0.2c0.1,0,0.3,0.1,0.4,0.2
		c0.1,0.1,0.2,0.2,0.2,0.4v11.3l-0.3-0.3H59.3z"/>
	<path d="M68.8,11.6c0.2,0,0.3,0.1,0.4,0.2c0.1,0.1,0.2,0.2,0.2,0.4c0,0.2-0.1,0.3-0.2,0.4s-0.2,0.2-0.4,0.2h-6.4
		c-0.2,0-0.3-0.1-0.4-0.2c-0.1-0.1-0.2-0.2-0.2-0.4V0.6c0-0.1,0.1-0.3,0.2-0.4s0.2-0.2,0.4-0.2c0.1,0,0.3,0.1,0.4,0.2
		C63,0.3,63,0.4,63,0.6v11.3l-0.3-0.3H68.8z"/>
	<path d="M75.7,1.5l-4.4,10.9c0,0.1-0.1,0.2-0.2,0.3s-0.2,0.1-0.3,0.1c-0.2,0-0.3,0-0.4-0.1c-0.1-0.1-0.1-0.2-0.1-0.3
		c0-0.1,0-0.1,0-0.2l4.8-11.6c0-0.1,0.1-0.2,0.2-0.3C75.4,0,75.5,0,75.6,0c0.1,0,0.2,0,0.3,0.1c0.1,0.1,0.2,0.2,0.2,0.3l4.7,11.6
		c0,0.1,0,0.1,0,0.2c0,0.2-0.1,0.3-0.2,0.4c-0.1,0.1-0.2,0.1-0.4,0.1c-0.1,0-0.2,0-0.3-0.1s-0.2-0.2-0.2-0.3L75.3,1.4L75.7,1.5z
		 M72.3,9L72.8,8h5.6L78.6,9H72.3z"/>
	<path d="M96.5,0.1c0.2,0,0.3,0.1,0.5,0.2s0.2,0.2,0.2,0.4c0,0.1,0,0.2-0.1,0.3l-8.2,10.9l0-0.1h7.7c0.2,0,0.3,0,0.4,0.1
		c0.1,0.1,0.2,0.2,0.2,0.4s-0.1,0.3-0.2,0.4c-0.1,0.1-0.2,0.2-0.4,0.2h-8.6c-0.2,0-0.3-0.1-0.4-0.2c-0.1-0.1-0.2-0.2-0.2-0.4
		c0-0.1,0-0.2,0.1-0.3L95.5,1l0.1,0.1h-7.4c-0.2,0-0.3-0.1-0.4-0.2c-0.1-0.1-0.2-0.2-0.2-0.4c0-0.2,0.1-0.3,0.2-0.4
		c0.1-0.1,0.2-0.1,0.4-0.1H96.5z"/>
	<path d="M103.8,1.5l-4.4,10.9c0,0.1-0.1,0.2-0.2,0.3s-0.2,0.1-0.3,0.1c-0.2,0-0.3,0-0.4-0.1c-0.1-0.1-0.1-0.2-0.1-0.3
		c0-0.1,0-0.1,0-0.2l4.8-11.6c0-0.1,0.1-0.2,0.2-0.3c0.1-0.1,0.2-0.1,0.3-0.1c0.1,0,0.2,0,0.3,0.1c0.1,0.1,0.2,0.2,0.2,0.3l4.7,11.6
		c0,0.1,0,0.1,0,0.2c0,0.2-0.1,0.3-0.2,0.4c-0.1,0.1-0.2,0.1-0.4,0.1c-0.1,0-0.2,0-0.3-0.1s-0.2-0.2-0.2-0.3l-4.5-10.9L103.8,1.5z
		 M100.5,9l0.4-1.1h5.6l0.2,1.1H100.5z"/>
	<path d="M116.5,0.1c1,0,1.8,0.3,2.4,0.8c0.6,0.5,0.9,1.3,0.9,2.3c0,0.5-0.1,1-0.3,1.4c-0.2,0.5-0.5,0.8-1,1.1
		c-0.4,0.3-0.9,0.4-1.6,0.5l-0.1-0.4c0.4,0,0.9,0.1,1.3,0.2c0.4,0.1,0.8,0.3,1.2,0.6c0.3,0.3,0.6,0.6,0.8,1c0.2,0.4,0.3,0.9,0.3,1.5
		c0,0.6-0.1,1.2-0.3,1.6c-0.2,0.4-0.5,0.8-0.9,1.1c-0.4,0.3-0.8,0.5-1.2,0.6c-0.4,0.1-0.9,0.2-1.4,0.2h-4.8c-0.2,0-0.3-0.1-0.4-0.2
		c-0.1-0.1-0.2-0.2-0.2-0.4V0.6c0-0.1,0.1-0.3,0.2-0.4c0.1-0.1,0.2-0.2,0.4-0.2H116.5z M116.4,1.1h-4.2l0.2-0.3v5.1l-0.2-0.3h4.2
		c0.6,0,1.1-0.2,1.6-0.6c0.4-0.4,0.6-1,0.6-1.8c0-0.6-0.2-1.2-0.6-1.5S117.1,1.1,116.4,1.1z M116.5,6.7h-4.2l0.1-0.1v5.2l-0.1-0.2
		h4.3c0.8,0,1.4-0.2,1.9-0.6c0.5-0.4,0.8-1,0.8-1.9c0-0.6-0.1-1.1-0.4-1.4c-0.3-0.4-0.6-0.6-1-0.8C117.4,6.8,117,6.7,116.5,6.7z"/>
	<path d="M127.2,1.5l-4.4,10.9c0,0.1-0.1,0.2-0.2,0.3s-0.2,0.1-0.3,0.1c-0.2,0-0.3,0-0.4-0.1c-0.1-0.1-0.1-0.2-0.1-0.3
		c0-0.1,0-0.1,0-0.2l4.8-11.6c0-0.1,0.1-0.2,0.2-0.3c0.1-0.1,0.2-0.1,0.3-0.1c0.1,0,0.2,0,0.3,0.1c0.1,0.1,0.2,0.2,0.2,0.3l4.7,11.6
		c0,0.1,0,0.1,0,0.2c0,0.2-0.1,0.3-0.2,0.4c-0.1,0.1-0.2,0.1-0.4,0.1c-0.1,0-0.2,0-0.3-0.1s-0.2-0.2-0.2-0.3l-4.5-10.9L127.2,1.5z
		 M123.8,9l0.4-1.1h5.6l0.2,1.1H123.8z"/>
	<path d="M135.2,12.7c-0.2,0-0.3-0.1-0.4-0.2c-0.1-0.1-0.2-0.2-0.2-0.4V0.6c0-0.1,0.1-0.3,0.2-0.4c0.1-0.1,0.2-0.2,0.4-0.2h4.9
		c0.7,0,1.3,0.1,1.8,0.4c0.5,0.3,1,0.7,1.3,1.2c0.3,0.5,0.5,1.1,0.5,1.8c0,0.5-0.1,1-0.3,1.4c-0.2,0.4-0.5,0.8-0.8,1.1
		c-0.3,0.3-0.7,0.5-1.2,0.7l-0.6-0.2c0.4,0,0.9,0.2,1.2,0.4c0.4,0.2,0.7,0.6,0.9,1c0.2,0.4,0.4,0.9,0.4,1.5c0,0.5,0,0.9,0.1,1.2
		s0.1,0.5,0.2,0.6s0.2,0.3,0.3,0.3c0.1,0.1,0.2,0.2,0.2,0.3c0,0.1,0,0.3,0,0.4c0,0.1-0.1,0.2-0.2,0.2c-0.1,0-0.2,0.1-0.3,0.1
		c-0.1,0-0.2,0-0.3-0.1c-0.2-0.1-0.4-0.2-0.5-0.5s-0.3-0.5-0.4-0.9c-0.1-0.4-0.2-0.9-0.2-1.7c0-0.5-0.1-0.8-0.2-1.1
		c-0.2-0.3-0.3-0.5-0.6-0.7c-0.2-0.2-0.5-0.3-0.8-0.3c-0.3-0.1-0.5-0.1-0.8-0.1h-4.2l0.2-0.3v5.1c0,0.1,0,0.3-0.1,0.4
		C135.5,12.6,135.3,12.7,135.2,12.7z M135.5,6.3h4.5c0.4,0,0.8-0.2,1.1-0.4c0.4-0.2,0.6-0.5,0.9-1c0.2-0.4,0.3-0.9,0.3-1.4
		c0-0.7-0.2-1.3-0.7-1.7c-0.5-0.5-1.1-0.7-1.8-0.7h-4.3l0.1-0.2v5.7L135.5,6.3z"/>
	<path d="M147.8,12.1c0,0.2-0.1,0.3-0.2,0.4c-0.1,0.1-0.2,0.2-0.4,0.2c-0.2,0-0.3-0.1-0.4-0.2s-0.1-0.2-0.1-0.4V0.6
		c0-0.2,0.1-0.3,0.2-0.4s0.2-0.2,0.4-0.2c0.1,0,0.3,0.1,0.4,0.2c0.1,0.1,0.2,0.2,0.2,0.4V12.1z"/>
</g>
</svg>
