<svg width="371" height="29" viewBox="0 0 371 29" fill="none" xmlns="http://www.w3.org/2000/svg">
<path d="M2.98023e-08 29H14.6C22.88 29 29.6 24.44 29.6 15C29.6 5.36 22.72 0.439998 14.44 0.439998C7.84 0.439998 5.88 6.4 5.68 7.6V1.12H2.98023e-08V29ZM5.68 28.44V12.36C5.68 5.72 9.12 0.959999 14.44 0.959999C20.4 0.959999 23.84 5.96 23.84 15C23.84 23.12 19.92 28.44 13.96 28.44H5.68ZM29.825 29H30.545L34.465 17.6H45.865L50.305 29H56.265L45.465 1.12H39.425L29.825 29ZM39.825 2L45.625 16.92H34.705L39.825 2ZM65.1331 29V1.8C68.6131 1.8 79.3331 3.12 80.1331 18.64V29H85.8131V1.12H80.1331V13.64C78.4131 6.2 72.9731 1.12 65.1331 1.12H59.4531V29H65.1331ZM89.8047 29H95.4847V1.12H89.8047V29ZM99.4922 29H121.452V28.32H105.172V14.8H117.892V14.16H105.172V1.76H121.452V1.12H99.4922V29ZM146.138 28.36H129.978V1.16H129.938V1.12H124.258V29H146.138V28.36ZM170.825 28.36H154.665V1.16H154.625V1.12H148.945V29H170.825V28.36ZM172.833 29H173.553L177.473 17.6H188.873L193.313 29H199.273L188.473 1.12H182.433L172.833 29ZM182.833 2L188.633 16.92H177.713L182.833 2ZM225.677 28.36L246.117 1.12H218.077V1.76H238.997L218.557 29H246.597V28.36H225.677ZM249.395 29H250.115L254.035 17.6H265.435L269.875 29H275.835L265.035 1.12H258.995L249.395 29ZM259.395 2L265.195 16.92H254.275L259.395 2ZM279.023 1.12V29H291.743C291.983 29 292.223 29 292.463 29C298.623 29 305.223 28.84 305.223 21.24C305.223 15.56 300.463 13.92 295.463 13.48C299.463 13.2 302.663 10.64 302.663 6.96C302.663 1.76 297.303 0.52 293.143 0.52C286.343 0.52 284.903 7.8 284.703 9V1.12H279.023ZM290.663 13.84C296.223 13.84 299.303 15.44 299.303 21.24C299.303 27.96 296.223 28.32 290.103 28.32H284.703V13.84H290.663ZM292.783 1.16C295.183 1.16 296.863 2.16 296.863 6.6C296.863 11.72 294.623 13.2 292.223 13.24H284.703C284.863 9.68 286.463 1.16 292.783 1.16ZM306.622 29H307.342L311.262 17.6H322.662L327.102 29H333.062L322.262 1.12H316.222L306.622 29ZM316.622 2L322.422 16.92H311.502L316.622 2ZM336.25 1.12V29H341.93V19.36H348.69L355.21 28.96H361.69L354.81 18.76C358.81 17.72 361.85 15.24 361.85 9.68C361.85 2.72 356.77 0.52 350.85 0.52C344.61 0.52 342.81 5.2 341.93 10.4V1.12H336.25ZM343.49 6.96C344.53 3.24 347.13 1.12 350.93 1.12C355.85 1.12 356.05 4.8 356.05 9.68C356.05 18.12 351.57 18.76 347.73 18.76H341.93C341.93 18.76 341.77 13.16 343.49 6.96ZM365.234 29H370.914V1.12H365.234V29Z" fill="black"/>
</svg>
